<mxfile host="65bd71144e">
    <diagram id="ZhAh54oxS_M_RfdSeCdj" name="overview">
        <mxGraphModel dx="1337" dy="804" grid="0" gridSize="10" guides="1" tooltips="1" connect="1" arrows="1" fold="1" page="0" pageScale="1" pageWidth="1169" pageHeight="1654" math="0" shadow="0">
            <root>
                <mxCell id="0"/>
                <mxCell id="1" parent="0"/>
                <mxCell id="213" value="&lt;font color=&quot;#aab7b8&quot;&gt;CI/CD Pipeline&lt;/font&gt;" style="rounded=0;whiteSpace=wrap;html=1;fontSize=12;dashed=1;verticalAlign=top;strokeColor=#AAB7B8;fillColor=none;" parent="1" vertex="1">
                    <mxGeometry x="1348" y="213" width="991" height="664" as="geometry"/>
                </mxCell>
                <mxCell id="160" value="AWS Cloud" style="sketch=0;outlineConnect=0;gradientColor=none;html=1;whiteSpace=wrap;fontSize=12;fontStyle=0;shape=mxgraph.aws4.group;grIcon=mxgraph.aws4.group_aws_cloud;strokeColor=#AAB7B8;fillColor=none;verticalAlign=top;align=left;spacingLeft=30;fontColor=#AAB7B8;dashed=0;" parent="1" vertex="1">
                    <mxGeometry x="280" y="210" width="720" height="957" as="geometry"/>
                </mxCell>
                <mxCell id="173" value="&lt;font color=&quot;#aab7b8&quot;&gt;API Deployment&lt;/font&gt;" style="rounded=0;whiteSpace=wrap;html=1;fontSize=12;dashed=1;verticalAlign=top;strokeColor=#AAB7B8;fillColor=none;" parent="1" vertex="1">
                    <mxGeometry x="489" y="665" width="320" height="160" as="geometry"/>
                </mxCell>
                <mxCell id="166" style="edgeStyle=orthogonalEdgeStyle;html=1;exitX=0.299;exitY=1.008;exitDx=0;exitDy=0;entryX=1;entryY=0.5;entryDx=0;entryDy=0;entryPerimeter=0;fontSize=12;exitPerimeter=0;" parent="1" source="159" target="165" edge="1">
                    <mxGeometry relative="1" as="geometry"/>
                </mxCell>
                <mxCell id="167" value="deploy auto-generated&lt;br&gt;API client library/JAR" style="edgeLabel;html=1;align=center;verticalAlign=middle;resizable=0;points=[];fontSize=12;" parent="166" vertex="1" connectable="0">
                    <mxGeometry x="-0.5238" y="-1" relative="1" as="geometry">
                        <mxPoint as="offset"/>
                    </mxGeometry>
                </mxCell>
                <mxCell id="179" style="edgeStyle=orthogonalEdgeStyle;html=1;fontSize=12;" parent="1" source="159" target="173" edge="1">
                    <mxGeometry relative="1" as="geometry"/>
                </mxCell>
                <mxCell id="180" value="deoloy API from OpenAPI&lt;br&gt;specification and IaC" style="edgeLabel;html=1;align=center;verticalAlign=middle;resizable=0;points=[];fontSize=12;" parent="179" vertex="1" connectable="0">
                    <mxGeometry x="0.256" y="1" relative="1" as="geometry">
                        <mxPoint as="offset"/>
                    </mxGeometry>
                </mxCell>
                <mxCell id="189" style="edgeStyle=orthogonalEdgeStyle;html=1;fontSize=12;entryX=0.824;entryY=-0.003;entryDx=0;entryDy=0;entryPerimeter=0;" parent="1" source="159" target="174" edge="1">
                    <mxGeometry relative="1" as="geometry">
                        <mxPoint x="880" y="937" as="targetPoint"/>
                        <Array as="points">
                            <mxPoint x="878" y="627"/>
                            <mxPoint x="878" y="627"/>
                        </Array>
                    </mxGeometry>
                </mxCell>
                <mxCell id="190" value="deploy auto-generated&lt;br&gt;API documentation" style="edgeLabel;html=1;align=center;verticalAlign=middle;resizable=0;points=[];fontSize=12;" parent="189" vertex="1" connectable="0">
                    <mxGeometry x="0.1392" y="-2" relative="1" as="geometry">
                        <mxPoint x="4" y="-130" as="offset"/>
                    </mxGeometry>
                </mxCell>
                <mxCell id="208" style="edgeStyle=none;html=1;" parent="1" source="159" target="205" edge="1">
                    <mxGeometry relative="1" as="geometry"/>
                </mxCell>
                <mxCell id="159" value="&lt;font color=&quot;#aab7b8&quot;&gt;CI/CD Pipeline&lt;/font&gt;" style="rounded=0;whiteSpace=wrap;html=1;fontSize=12;dashed=1;verticalAlign=top;strokeColor=#AAB7B8;fillColor=none;" parent="1" vertex="1">
                    <mxGeometry x="338" y="387" width="622" height="160" as="geometry"/>
                </mxCell>
                <mxCell id="154" style="edgeStyle=none;html=1;fontSize=12;" parent="1" source="152" target="153" edge="1">
                    <mxGeometry relative="1" as="geometry"/>
                </mxCell>
                <mxCell id="155" value="push" style="edgeLabel;html=1;align=center;verticalAlign=middle;resizable=0;points=[];fontSize=12;" parent="154" vertex="1" connectable="0">
                    <mxGeometry x="0.2403" y="-2" relative="1" as="geometry">
                        <mxPoint x="-16" y="-1" as="offset"/>
                    </mxGeometry>
                </mxCell>
                <mxCell id="152" value="API Developers" style="sketch=0;outlineConnect=0;fontColor=#232F3E;gradientColor=none;fillColor=#232F3D;strokeColor=none;dashed=0;verticalLabelPosition=bottom;verticalAlign=top;align=center;html=1;fontSize=12;fontStyle=0;aspect=fixed;pointerEvents=1;shape=mxgraph.aws4.users;" parent="1" vertex="1">
                    <mxGeometry x="40" y="427" width="78" height="78" as="geometry"/>
                </mxCell>
                <mxCell id="157" style="edgeStyle=none;html=1;fontSize=12;" parent="1" source="153" target="156" edge="1">
                    <mxGeometry relative="1" as="geometry"/>
                </mxCell>
                <mxCell id="158" value="trigger" style="edgeLabel;html=1;align=center;verticalAlign=middle;resizable=0;points=[];fontSize=12;" parent="157" vertex="1" connectable="0">
                    <mxGeometry x="0.1428" relative="1" as="geometry">
                        <mxPoint x="-15" y="1" as="offset"/>
                    </mxGeometry>
                </mxCell>
                <mxCell id="153" value="&lt;font style=&quot;font-size: 12px;&quot;&gt;GitHub&lt;/font&gt;" style="dashed=0;outlineConnect=0;html=1;align=center;labelPosition=center;verticalLabelPosition=bottom;verticalAlign=top;shape=mxgraph.weblogos.github;fontSize=24;" parent="1" vertex="1">
                    <mxGeometry x="200" y="428.5" width="75" height="75" as="geometry"/>
                </mxCell>
                <mxCell id="156" value="AWS CodeStar&lt;br&gt;Connection" style="sketch=0;points=[[0,0,0],[0.25,0,0],[0.5,0,0],[0.75,0,0],[1,0,0],[0,1,0],[0.25,1,0],[0.5,1,0],[0.75,1,0],[1,1,0],[0,0.25,0],[0,0.5,0],[0,0.75,0],[1,0.25,0],[1,0.5,0],[1,0.75,0]];outlineConnect=0;fontColor=#232F3E;gradientColor=#4D72F3;gradientDirection=north;fillColor=#3334B9;strokeColor=#ffffff;dashed=0;verticalLabelPosition=bottom;verticalAlign=top;align=center;html=1;fontSize=12;fontStyle=0;aspect=fixed;shape=mxgraph.aws4.resourceIcon;resIcon=mxgraph.aws4.codestar;" parent="1" vertex="1">
                    <mxGeometry x="360" y="427" width="78" height="78" as="geometry"/>
                </mxCell>
                <mxCell id="161" value="AWS CodePipeline" style="sketch=0;points=[[0,0,0],[0.25,0,0],[0.5,0,0],[0.75,0,0],[1,0,0],[0,1,0],[0.25,1,0],[0.5,1,0],[0.75,1,0],[1,1,0],[0,0.25,0],[0,0.5,0],[0,0.75,0],[1,0.25,0],[1,0.5,0],[1,0.75,0]];outlineConnect=0;fontColor=#232F3E;gradientColor=#4D72F3;gradientDirection=north;fillColor=#3334B9;strokeColor=#ffffff;dashed=0;verticalLabelPosition=bottom;verticalAlign=top;align=center;html=1;fontSize=12;fontStyle=0;aspect=fixed;shape=mxgraph.aws4.resourceIcon;resIcon=mxgraph.aws4.codepipeline;" parent="1" vertex="1">
                    <mxGeometry x="481" y="428.5" width="78" height="78" as="geometry"/>
                </mxCell>
                <mxCell id="162" value="AWS CodeBuild" style="sketch=0;points=[[0,0,0],[0.25,0,0],[0.5,0,0],[0.75,0,0],[1,0,0],[0,1,0],[0.25,1,0],[0.5,1,0],[0.75,1,0],[1,1,0],[0,0.25,0],[0,0.5,0],[0,0.75,0],[1,0.25,0],[1,0.5,0],[1,0.75,0]];outlineConnect=0;fontColor=#232F3E;gradientColor=#4D72F3;gradientDirection=north;fillColor=#3334B9;strokeColor=#ffffff;dashed=0;verticalLabelPosition=bottom;verticalAlign=top;align=center;html=1;fontSize=12;fontStyle=0;aspect=fixed;shape=mxgraph.aws4.resourceIcon;resIcon=mxgraph.aws4.codebuild;" parent="1" vertex="1">
                    <mxGeometry x="601" y="428.5" width="78" height="78" as="geometry"/>
                </mxCell>
                <mxCell id="163" value="AWS Cloud&lt;br&gt;Development Kit" style="sketch=0;points=[[0,0,0],[0.25,0,0],[0.5,0,0],[0.75,0,0],[1,0,0],[0,1,0],[0.25,1,0],[0.5,1,0],[0.75,1,0],[1,1,0],[0,0.25,0],[0,0.5,0],[0,0.75,0],[1,0.25,0],[1,0.5,0],[1,0.75,0]];outlineConnect=0;fontColor=#232F3E;gradientColor=#4D72F3;gradientDirection=north;fillColor=#3334B9;strokeColor=#ffffff;dashed=0;verticalLabelPosition=bottom;verticalAlign=top;align=center;html=1;fontSize=12;fontStyle=0;aspect=fixed;shape=mxgraph.aws4.resourceIcon;resIcon=mxgraph.aws4.cloud_development_kit;" parent="1" vertex="1">
                    <mxGeometry x="720" y="428" width="78" height="78" as="geometry"/>
                </mxCell>
                <mxCell id="164" value="AWS CloudFormation" style="sketch=0;points=[[0,0,0],[0.25,0,0],[0.5,0,0],[0.75,0,0],[1,0,0],[0,1,0],[0.25,1,0],[0.5,1,0],[0.75,1,0],[1,1,0],[0,0.25,0],[0,0.5,0],[0,0.75,0],[1,0.25,0],[1,0.5,0],[1,0.75,0]];points=[[0,0,0],[0.25,0,0],[0.5,0,0],[0.75,0,0],[1,0,0],[0,1,0],[0.25,1,0],[0.5,1,0],[0.75,1,0],[1,1,0],[0,0.25,0],[0,0.5,0],[0,0.75,0],[1,0.25,0],[1,0.5,0],[1,0.75,0]];outlineConnect=0;fontColor=#232F3E;gradientColor=#F34482;gradientDirection=north;fillColor=#BC1356;strokeColor=#ffffff;dashed=0;verticalLabelPosition=bottom;verticalAlign=top;align=center;html=1;fontSize=12;fontStyle=0;aspect=fixed;shape=mxgraph.aws4.resourceIcon;resIcon=mxgraph.aws4.cloudformation;" parent="1" vertex="1">
                    <mxGeometry x="835" y="429" width="78" height="78" as="geometry"/>
                </mxCell>
                <mxCell id="165" value="AWS CodeArtifact" style="sketch=0;points=[[0,0,0],[0.25,0,0],[0.5,0,0],[0.75,0,0],[1,0,0],[0,1,0],[0.25,1,0],[0.5,1,0],[0.75,1,0],[1,1,0],[0,0.25,0],[0,0.5,0],[0,0.75,0],[1,0.25,0],[1,0.5,0],[1,0.75,0]];outlineConnect=0;fontColor=#232F3E;gradientColor=#4D72F3;gradientDirection=north;fillColor=#3334B9;strokeColor=#ffffff;dashed=0;verticalLabelPosition=bottom;verticalAlign=top;align=center;html=1;fontSize=12;fontStyle=0;aspect=fixed;shape=mxgraph.aws4.resourceIcon;resIcon=mxgraph.aws4.codeartifact;" parent="1" vertex="1">
                    <mxGeometry x="360" y="587" width="78" height="78" as="geometry"/>
                </mxCell>
                <mxCell id="169" style="edgeStyle=orthogonalEdgeStyle;html=1;fontSize=12;entryX=0;entryY=0.5;entryDx=0;entryDy=0;entryPerimeter=0;" parent="1" source="168" target="165" edge="1">
                    <mxGeometry relative="1" as="geometry">
                        <mxPoint x="360" y="697" as="targetPoint"/>
                        <Array as="points">
                            <mxPoint x="160" y="744"/>
                            <mxPoint x="160" y="626"/>
                        </Array>
                    </mxGeometry>
                </mxCell>
                <mxCell id="170" value="download API&lt;br&gt;client library/JAR" style="edgeLabel;html=1;align=center;verticalAlign=middle;resizable=0;points=[];fontSize=12;" parent="169" vertex="1" connectable="0">
                    <mxGeometry x="-0.5251" y="-2" relative="1" as="geometry">
                        <mxPoint x="-2" y="-35" as="offset"/>
                    </mxGeometry>
                </mxCell>
                <mxCell id="177" style="edgeStyle=orthogonalEdgeStyle;html=1;entryX=0;entryY=0.5;entryDx=0;entryDy=0;entryPerimeter=0;fontSize=12;" parent="1" source="168" target="172" edge="1">
                    <mxGeometry relative="1" as="geometry"/>
                </mxCell>
                <mxCell id="178" value="invoke API" style="edgeLabel;html=1;align=center;verticalAlign=middle;resizable=0;points=[];fontSize=12;" parent="177" vertex="1" connectable="0">
                    <mxGeometry x="-0.035" y="2" relative="1" as="geometry">
                        <mxPoint x="83" y="3" as="offset"/>
                    </mxGeometry>
                </mxCell>
                <mxCell id="185" style="edgeStyle=orthogonalEdgeStyle;html=1;entryX=0;entryY=0.5;entryDx=0;entryDy=0;entryPerimeter=0;fontSize=12;" parent="1" source="168" target="181" edge="1">
                    <mxGeometry relative="1" as="geometry">
                        <Array as="points">
                            <mxPoint x="160" y="744"/>
                            <mxPoint x="160" y="926"/>
                        </Array>
                    </mxGeometry>
                </mxCell>
                <mxCell id="186" value="view API documentation" style="edgeLabel;html=1;align=center;verticalAlign=middle;resizable=0;points=[];fontSize=12;" parent="185" vertex="1" connectable="0">
                    <mxGeometry x="0.5586" y="-1" relative="1" as="geometry">
                        <mxPoint x="-8" y="-1" as="offset"/>
                    </mxGeometry>
                </mxCell>
                <mxCell id="168" value="Technical API&lt;br&gt;Consumers/Clients" style="sketch=0;outlineConnect=0;fontColor=#232F3E;gradientColor=none;fillColor=#232F3D;strokeColor=none;dashed=0;verticalLabelPosition=bottom;verticalAlign=top;align=center;html=1;fontSize=12;fontStyle=0;aspect=fixed;pointerEvents=1;shape=mxgraph.aws4.users;" parent="1" vertex="1">
                    <mxGeometry x="40" y="705" width="78" height="78" as="geometry"/>
                </mxCell>
                <mxCell id="176" style="edgeStyle=orthogonalEdgeStyle;html=1;fontSize=12;" parent="1" source="172" target="175" edge="1">
                    <mxGeometry relative="1" as="geometry"/>
                </mxCell>
                <mxCell id="172" value="Amazon API Gateway" style="sketch=0;points=[[0,0,0],[0.25,0,0],[0.5,0,0],[0.75,0,0],[1,0,0],[0,1,0],[0.25,1,0],[0.5,1,0],[0.75,1,0],[1,1,0],[0,0.25,0],[0,0.5,0],[0,0.75,0],[1,0.25,0],[1,0.5,0],[1,0.75,0]];outlineConnect=0;fontColor=#232F3E;gradientColor=#FF4F8B;gradientDirection=north;fillColor=#BC1356;strokeColor=#ffffff;dashed=0;verticalLabelPosition=bottom;verticalAlign=top;align=center;html=1;fontSize=12;fontStyle=0;aspect=fixed;shape=mxgraph.aws4.resourceIcon;resIcon=mxgraph.aws4.api_gateway;" parent="1" vertex="1">
                    <mxGeometry x="529" y="705" width="78" height="78" as="geometry"/>
                </mxCell>
                <mxCell id="174" value="&lt;font color=&quot;#aab7b8&quot;&gt;API Documentation&lt;/font&gt;" style="rounded=0;whiteSpace=wrap;html=1;fontSize=12;dashed=1;verticalAlign=top;strokeColor=#AAB7B8;fillColor=none;" parent="1" vertex="1">
                    <mxGeometry x="490" y="847" width="471" height="300" as="geometry"/>
                </mxCell>
                <mxCell id="175" value="AWS Lambda&lt;br&gt;API implementation" style="sketch=0;points=[[0,0,0],[0.25,0,0],[0.5,0,0],[0.75,0,0],[1,0,0],[0,1,0],[0.25,1,0],[0.5,1,0],[0.75,1,0],[1,1,0],[0,0.25,0],[0,0.5,0],[0,0.75,0],[1,0.25,0],[1,0.5,0],[1,0.75,0]];outlineConnect=0;fontColor=#232F3E;gradientColor=#F78E04;gradientDirection=north;fillColor=#D05C17;strokeColor=#ffffff;dashed=0;verticalLabelPosition=bottom;verticalAlign=top;align=center;html=1;fontSize=12;fontStyle=0;aspect=fixed;shape=mxgraph.aws4.resourceIcon;resIcon=mxgraph.aws4.lambda;" parent="1" vertex="1">
                    <mxGeometry x="680" y="705" width="78" height="78" as="geometry"/>
                </mxCell>
                <mxCell id="184" style="edgeStyle=orthogonalEdgeStyle;html=1;fontSize=12;" parent="1" source="181" target="182" edge="1">
                    <mxGeometry relative="1" as="geometry"/>
                </mxCell>
                <mxCell id="194" style="edgeStyle=orthogonalEdgeStyle;html=1;fontSize=12;" parent="1" source="181" target="193" edge="1">
                    <mxGeometry relative="1" as="geometry"/>
                </mxCell>
                <mxCell id="181" value="Amazon CloudFront&lt;br&gt;Content Distribution Network" style="sketch=0;points=[[0,0,0],[0.25,0,0],[0.5,0,0],[0.75,0,0],[1,0,0],[0,1,0],[0.25,1,0],[0.5,1,0],[0.75,1,0],[1,1,0],[0,0.25,0],[0,0.5,0],[0,0.75,0],[1,0.25,0],[1,0.5,0],[1,0.75,0]];outlineConnect=0;fontColor=#232F3E;gradientColor=#945DF2;gradientDirection=north;fillColor=#5A30B5;strokeColor=#ffffff;dashed=0;verticalLabelPosition=bottom;verticalAlign=top;align=center;html=1;fontSize=12;fontStyle=0;aspect=fixed;shape=mxgraph.aws4.resourceIcon;resIcon=mxgraph.aws4.cloudfront;" parent="1" vertex="1">
                    <mxGeometry x="530" y="887" width="78" height="78" as="geometry"/>
                </mxCell>
                <mxCell id="182" value="Amazon S3&lt;br&gt;API Documentation Website" style="sketch=0;points=[[0,0,0],[0.25,0,0],[0.5,0,0],[0.75,0,0],[1,0,0],[0,1,0],[0.25,1,0],[0.5,1,0],[0.75,1,0],[1,1,0],[0,0.25,0],[0,0.5,0],[0,0.75,0],[1,0.25,0],[1,0.5,0],[1,0.75,0]];outlineConnect=0;fontColor=#232F3E;gradientColor=#60A337;gradientDirection=north;fillColor=#277116;strokeColor=#ffffff;dashed=0;verticalLabelPosition=bottom;verticalAlign=top;align=center;html=1;fontSize=12;fontStyle=0;aspect=fixed;shape=mxgraph.aws4.resourceIcon;resIcon=mxgraph.aws4.s3;" parent="1" vertex="1">
                    <mxGeometry x="680" y="887" width="78" height="78" as="geometry"/>
                </mxCell>
                <mxCell id="187" style="edgeStyle=orthogonalEdgeStyle;html=1;entryX=0;entryY=0.75;entryDx=0;entryDy=0;entryPerimeter=0;fontSize=12;" parent="1" source="183" target="181" edge="1">
                    <mxGeometry relative="1" as="geometry"/>
                </mxCell>
                <mxCell id="188" value="view API documentation" style="edgeLabel;html=1;align=center;verticalAlign=middle;resizable=0;points=[];fontSize=12;" parent="187" vertex="1" connectable="0">
                    <mxGeometry x="0.2799" y="1" relative="1" as="geometry">
                        <mxPoint x="9" y="2" as="offset"/>
                    </mxGeometry>
                </mxCell>
                <mxCell id="183" value="Non Technical API&lt;br&gt;Stakeholders" style="sketch=0;outlineConnect=0;fontColor=#232F3E;gradientColor=none;fillColor=#232F3D;strokeColor=none;dashed=0;verticalLabelPosition=bottom;verticalAlign=top;align=center;html=1;fontSize=12;fontStyle=0;aspect=fixed;pointerEvents=1;shape=mxgraph.aws4.users;" parent="1" vertex="1">
                    <mxGeometry x="41" y="907" width="78" height="78" as="geometry"/>
                </mxCell>
                <mxCell id="192" value="Amazon Cognito&lt;br&gt;UserPool" style="sketch=0;points=[[0,0,0],[0.25,0,0],[0.5,0,0],[0.75,0,0],[1,0,0],[0,1,0],[0.25,1,0],[0.5,1,0],[0.75,1,0],[1,1,0],[0,0.25,0],[0,0.5,0],[0,0.75,0],[1,0.25,0],[1,0.5,0],[1,0.75,0]];outlineConnect=0;fontColor=#232F3E;gradientColor=#F54749;gradientDirection=north;fillColor=#C7131F;strokeColor=#ffffff;dashed=0;verticalLabelPosition=bottom;verticalAlign=top;align=center;html=1;fontSize=12;fontStyle=0;aspect=fixed;shape=mxgraph.aws4.resourceIcon;resIcon=mxgraph.aws4.cognito;" parent="1" vertex="1">
                    <mxGeometry x="680" y="1027" width="78" height="78" as="geometry"/>
                </mxCell>
                <mxCell id="195" style="edgeStyle=orthogonalEdgeStyle;html=1;fontSize=12;" parent="1" source="193" target="192" edge="1">
                    <mxGeometry relative="1" as="geometry"/>
                </mxCell>
                <mxCell id="193" value="AWS Lambda@Edge&lt;br&gt;Authentication" style="sketch=0;points=[[0,0,0],[0.25,0,0],[0.5,0,0],[0.75,0,0],[1,0,0],[0,1,0],[0.25,1,0],[0.5,1,0],[0.75,1,0],[1,1,0],[0,0.25,0],[0,0.5,0],[0,0.75,0],[1,0.25,0],[1,0.5,0],[1,0.75,0]];outlineConnect=0;fontColor=#232F3E;gradientColor=#F78E04;gradientDirection=north;fillColor=#D05C17;strokeColor=#ffffff;dashed=0;verticalLabelPosition=bottom;verticalAlign=top;align=center;html=1;fontSize=12;fontStyle=0;aspect=fixed;shape=mxgraph.aws4.resourceIcon;resIcon=mxgraph.aws4.lambda;" parent="1" vertex="1">
                    <mxGeometry x="530" y="1027" width="78" height="78" as="geometry"/>
                </mxCell>
                <UserObject label="https://aws.amazon.com/jp/blogs/networking-and-content-delivery/authorizationedge-using-cookies-protect-your-amazon-cloudfront-content-from-being-downloaded-by-unauthenticated-users/" link="https://aws.amazon.com/jp/blogs/networking-and-content-delivery/authorizationedge-using-cookies-protect-your-amazon-cloudfront-content-from-being-downloaded-by-unauthenticated-users/" id="197">
                    <mxCell style="text;whiteSpace=wrap;html=1;fontSize=12;fontColor=#AAB7B8;" parent="1" vertex="1">
                        <mxGeometry x="450" y="1197" width="560" height="50" as="geometry"/>
                    </mxCell>
                </UserObject>
                <UserObject label="https://aws.amazon.com/jp/blogs/devops/deploy-and-manage-openapi-swagger-restful-apis-with-the-aws-cloud-development-kit/" link="https://aws.amazon.com/jp/blogs/devops/deploy-and-manage-openapi-swagger-restful-apis-with-the-aws-cloud-development-kit/" id="198">
                    <mxCell style="text;whiteSpace=wrap;html=1;fontSize=12;fontColor=#AAB7B8;" parent="1" vertex="1">
                        <mxGeometry x="450" y="1257" width="560" height="50" as="geometry"/>
                    </mxCell>
                </UserObject>
                <mxCell id="209" style="edgeStyle=none;html=1;" parent="1" source="204" target="207" edge="1">
                    <mxGeometry relative="1" as="geometry"/>
                </mxCell>
                <mxCell id="204" value="Chatbot" style="sketch=0;points=[[0,0,0],[0.25,0,0],[0.5,0,0],[0.75,0,0],[1,0,0],[0,1,0],[0.25,1,0],[0.5,1,0],[0.75,1,0],[1,1,0],[0,0.25,0],[0,0.5,0],[0,0.75,0],[1,0.25,0],[1,0.5,0],[1,0.75,0]];points=[[0,0,0],[0.25,0,0],[0.5,0,0],[0.75,0,0],[1,0,0],[0,1,0],[0.25,1,0],[0.5,1,0],[0.75,1,0],[1,1,0],[0,0.25,0],[0,0.5,0],[0,0.75,0],[1,0.25,0],[1,0.5,0],[1,0.75,0]];outlineConnect=0;fontColor=#232F3E;gradientColor=#F34482;gradientDirection=north;fillColor=#BC1356;strokeColor=#ffffff;dashed=0;verticalLabelPosition=bottom;verticalAlign=top;align=center;html=1;fontSize=12;fontStyle=0;aspect=fixed;shape=mxgraph.aws4.resourceIcon;resIcon=mxgraph.aws4.chatbot;" parent="1" vertex="1">
                    <mxGeometry x="470" y="240" width="78" height="78" as="geometry"/>
                </mxCell>
                <mxCell id="211" style="edgeStyle=orthogonalEdgeStyle;html=1;" parent="1" source="205" target="204" edge="1">
                    <mxGeometry relative="1" as="geometry"/>
                </mxCell>
                <mxCell id="205" value="Simple Notification Service" style="sketch=0;points=[[0,0,0],[0.25,0,0],[0.5,0,0],[0.75,0,0],[1,0,0],[0,1,0],[0.25,1,0],[0.5,1,0],[0.75,1,0],[1,1,0],[0,0.25,0],[0,0.5,0],[0,0.75,0],[1,0.25,0],[1,0.5,0],[1,0.75,0]];outlineConnect=0;fontColor=#232F3E;gradientColor=#FF4F8B;gradientDirection=north;fillColor=#BC1356;strokeColor=#ffffff;dashed=0;verticalLabelPosition=bottom;verticalAlign=top;align=center;html=1;fontSize=12;fontStyle=0;aspect=fixed;shape=mxgraph.aws4.resourceIcon;resIcon=mxgraph.aws4.sns;" parent="1" vertex="1">
                    <mxGeometry x="610" y="240" width="78" height="78" as="geometry"/>
                </mxCell>
                <mxCell id="210" style="edgeStyle=orthogonalEdgeStyle;html=1;" parent="1" source="207" target="152" edge="1">
                    <mxGeometry relative="1" as="geometry">
                        <Array as="points">
                            <mxPoint x="160" y="279"/>
                            <mxPoint x="160" y="466"/>
                        </Array>
                    </mxGeometry>
                </mxCell>
                <mxCell id="207" value="Slack" style="shape=image;verticalLabelPosition=bottom;labelBackgroundColor=default;verticalAlign=top;aspect=fixed;imageAspect=0;image=data:image/png,iVBORw0KGgoAAAANSUhEUgAAAHwAAAB8CAYAAACrHtS+AAAM1ElEQVR42u2dAWgUVxqAM5vEBg8kxBSIEqtpwai7WyquCs0BVE4PCEkEDsi2SSJKDyDJFSABcNNSgUoL5NLaQ3qggoebHIC9xNPa0/YAkgM1xh6AUVtNErnGJJqJSQ1rkt2973GTa2uTcWczs7M78x58vF2zM+/5f/PevJl9bzYrndPO3illZ8/UOvJa8jAM7OxVH/N+bmePOhvonRrm9cVAz1Qz+TbIMbsO/vOt2bDNd761mfyi/0LrMPkszME03IIO34XWOv+F0Dr/+ZCSRDEyIXctNCLxOkQgrkMUhjgY2mAzB4JigmgFNiO4jXyIPApxHZ4i+zrSm3i9Vho0JnsXXEbiAsQNcgdq2H5VsuX7LoRykVwDd4RMgyzAV+xjlzSZUDeuliPsHsRXwA8ID5HnJdGy8xB2GGYgvgLu0c2XS6M6KdCj7kHSCMRNIIL0Fs7v2QbP1y3IikDcBEbY3x5pdukBWglch7iJqAivMCC8AlQhyyzYXz95iTT885adE+hVPxGSzIYB3BX2XZSA7CJG4lcMyDQi/Rj8eAUhhU8FYNwC4aDGoCkB4U0Qs0I4jMNOaVpLXFN/KORYSC/kL1c+MvKhB+JWwQDuI2mahOwCuGax8GkGcGXLCw+9jpRpiFtIHxRI4T1Tr8Eji4WD2qAjvMFi2YJJ2C6FM4pGyHwKhLfrCP9jCoTPQ6UU3qvWWy9boJ4GZYnztwKnIZ4C6qXwXvVAioSHwfNL4e96EBFOkfBD8pKsZ2o/QhakcPecw3eAKoW7RrhaCDekcHe18nYp3F3n8TKkT0rh7hG+CuEnXCRcJqRshQEp3FXS1UoYl8LdM2L3ICcIo+4RLrt2BX4D19wlXF6qFcP7cBdhUSncJV08lCD9bQgj7gbSRsjHDPIIjkvhmXXploO0AqRtIt9ikK2wnm0VKdxlSQp3ZJLCZZLCZZLCpXApnFUhYo12AbwGlYx2mYOmHrKZg1AD+6hPKfVa7XThrEb1QKHvfGgHy5L3s68DUM/iiUry7VAAykoug3KRHRCLBAhoH0zqzC61i6cwSt0uwTssK9pIfRUnCWf50wssYiiDdoR/wwzbKfaz8Mxs2Enogw8hwEGQa3hhH8KPwYQIbIYQQ/otaKTea5wgHNlb4ASyVQNlTCD8WEILGHf3TCm0kDcIXj/EMxGEzyP8r+IGTaYKR5hH66oHVrCA8QbsefXCe8rzFuOPQDzzUf8Jr2SacFqzgqggjJtQ3n0oX+7Lit0E6i7EHcQ5WnthRgk/H9qL9FETy7zHeX/3Ug/QueQw2Yvn9SPgyQThtOpiRuBXLSj3MhT+dJDWCFGIOw1kj0IgQ4S/b1G5UVp502LrXgd9IjgO5tMArTydhSO7hL9/a1nZPFIM1ovWXQsRJwvn+vw72JjOwvnb2xCzsOyIeHiguMESdrJsjTmEV6WrcO3pUdbXgTKyFqcGOx81lLbCuS0K/SkQPiCEP3aJ8M/SWPgmGEmB8MdC+BzEXcCZpee0taZS+MFluvQtMJYC4XNC+KxLWvhJnRHyyVQI5754jc3Cn4jLsmGXCD+qczvzgxQIj8A+O4XDsBilf+EC4TFG6XU6wmstviSC0PdQanMLvyi69GaIOvw6/AH4dLp0HzywOOCX4Fc2Co9CsxDuhUGIO5izCM97ziSDsxYH/B1Rll3C2f8guVecwz3Q5ljZPVOzUJXA15JVBOSJRd35APkmG4VDqI1bq57F++mlcNuhwjthdQKzS1YjvcOKB/LxlWejKMNG4beh9NmvSGtgxmGybzIo9RqYUuQl8DdNDnYnc9HW2Ch8BmqXmgCRy/Smw875IkW9D781Pou1dZ/PpLteSPyablTrym0RHoEQ5C43xSkP8S0ETM3wlj2QkGwd6QgYWEGgY2x/DrQpVqkXzv5UaOHgzXvurxMQtApGtVfJoxk4QOvU68aNdO8Eq5PgzRocHI2x3ZHFGSY2CI+yr6vkFYZ+hYGgFUETAeyF6TQWHYMx+FyMxpNalKA/kKvULtnGILrcPWryu/AnhAfoxrMN/pLSVhOEz8C/oIl9FWUlk3ZcVhUCmA9lnN8btAfoiacSh+2GHugU9TkKdbz2aT9ZZUlCeB6B9JLXwlECeor3Zzgg/szrVqji/UugK1pH+Ho4zvYdEDbAX9iunbwRyiB/y5fvKWY/aUkBj90EqIfZYg0IUgiu4iM3aX2bAh5jtAoU75fv/rIOMskkk0wyySSTTEMbqpXBDdUeo4jtTCm/WJQPYFcMHnb5FfA8+pt9UL5AGfy7VzFPbtHvFAKcj6zXhzYEG8jb4TTBDhugg22Ow/pk6jBYXJ09VBx8iXpUkYfYz2fs8wzvT/G3o+R14OXfLbssm+j25U10+70TXf5aOPqw23+SYIfthrqcpl7t0AhlvM//z+elSlZygQ4WQRPB7EX2NMRXwBhsNdiSs5G4g/xTtv0O2XNL77s6BmN87nPtoFhtmugu32pkV8JZAjqG6CjE0xHqN43wXvIm3hcZCHQwh8BVkF8loFGIm8AYbDFQh0LqcASRD4yUw3az0Ml23pV32z4vwjsJ4KwIaAYRhatQATnPC3QetBA8FeKCVAsf3BB8mTqcW9nBVj1Ad5/0lydI3gcDIoAZjAotHLh5y3XhubSqwwQsAnE7hCN6E8K/NqNM/j/3h5CejOyH3b6RDJcN0OWPQIjXuUudM2sI+IwIlh3CKXsNdJpabnH1TXKvoW6823dTBMtBzEDts7JLCfZtEST7hFc38pl508vmIILViQzQoEMEyYHchtLFQHugTQTHLuGUvxFuWlT2rBi9J3DpVcUo94lDhQvawJMlRrQEZdBm4X+wsnz2f1YMSHVkvwBnHSxbMMjYxCuC3SxGxHYJF90t/MNa4cEH/D99OgM1HwF54HDhUWjOIiBfQNw+4dWb4Xtry6+OUUadzvm7lmDEIO5wLgrhw3YKR8bexUtBS+E2rE6X/oELZAuGhfAnNgt/i7/FUiD8pM6XIafcIFzcNRQBn0uJ8OKlhfNFyEHLywfKCYNnCdkeOOMK4V3+OSH8seXBLq4egU3LCD9EHWwTLhLB+MwNwjmwHyM8OJCC7rQfCtJVOIO2kBuEw4AQHk6B8DBkp63wbn8VwZhzgfBwFiJqLR4lxzh//z6LlMbCX4JvHS47AnWiha9DSJ+FNz2+g5fTW7jPA586XPh1WL94t6vRsrttTGQQZaSzcE16AEYde5ety9/0sxkmcNmCQF9DZnFGCO/ycXnmO+LQO26XEV747D3t3XDXxK58FPZmkTJBuCa9kHN5t8Nk34Pdy01CKCc4IyZ04+PwJvtTMki4dk3uewW+dsh1930o15lz/qaCpDegfwXBvYXsStCCm1nCtVH7Rs7nnQRtPoOF34A9D7teVRKZIlyC9GMwYaALV+EE8nRmtmSGcG260xq6+Abk38qk8zr1nSA/BiVGFwDkIj4AHxKwPphEzE+nIC3AFPybz3wMZQh/QWzrAOHaOd2v0NI3wjsE8BLB/J7XEa27TA/ohajXJPRR34/IA0tMWjQkRIECpGyHSqjn/QEOiP3MDA0QzBd1uu+MFL7M/XYx520z7OP1WwT7IByymXqxUALJ26GAetmw/Mp5wmWSwmWSwmWSwmWSwmWyW/ij/y3uX88IdytsSRQugcC3idcFkCNNZo5wD8KPI+0RjCXKBMCIdkerg328TV4CshdJZ+Ha4zPCJk30vwtHoNhpnqRwffpgLyjusCiFC0bZ75sgu3hXCAf2Ow5VbnEphYN4dAij+a0u0SmFC9j/CS7jVrlEqRSufX35a5colcI16R+7y6wU/g286BKtUjioEHCPWSl8gRa+Xwq3/156aoQD5RxwvXDmw9VbLVugPQVaWeZR2KdTtCC/XgpnDjsy5lOwZLldZx56ewqEz1NOpRS+IfgaPEqB8Aad6cgNKRilT8J2KZwp0Ai5ZrHwaSjTEV5Gtz5tsfA+KKA4mcRiB4tbdy+LJPJ1hOdDj7Xnb99H0vSPq1wCCBm3RnYwhvCmBH7HpAkxMYta9zgLBnZK0/8XHsxBzCcWCb8CRQkIL4IrVgiHY3Le29ILGK+bLFxljFBhYC1ZBa1RNVl2/zIL+2RC+B4kjZjUsiPQwutsA8KzEd6CoIhJN1pGyPdIs/rSy+HeCoX/QI8RYj95SSwazIPDiJ9Z8ZMXunzl0mhi0nfBZcQtJCH7Dt14DcJXreB3ynIRVgN3krlnDl/xFIld0qSBhLi1SG+E6wk8Ry7K54aQ3Ea+2YxfLZw451fo4jfTLbchcCiB3yx7Cv3QBGulwaR/djK4Tnt4YBgG4DFS5/j3WfIR5F6kRbfwehufM30kjLxs2Ib4ZrhIVz/MgTAL87yehlvQwWfqYB2fSeupyf8FVo7TTmskCyEAAAAASUVORK5CYII=;" parent="1" vertex="1">
                    <mxGeometry x="198" y="240" width="79" height="79" as="geometry"/>
                </mxCell>
                <mxCell id="212" value="AWS CodePipeline" style="sketch=0;points=[[0,0,0],[0.25,0,0],[0.5,0,0],[0.75,0,0],[1,0,0],[0,1,0],[0.25,1,0],[0.5,1,0],[0.75,1,0],[1,1,0],[0,0.25,0],[0,0.5,0],[0,0.75,0],[1,0.25,0],[1,0.5,0],[1,0.75,0]];outlineConnect=0;fontColor=#232F3E;gradientColor=#4D72F3;gradientDirection=north;fillColor=#3334B9;strokeColor=#ffffff;dashed=0;verticalLabelPosition=bottom;verticalAlign=top;align=center;html=1;fontSize=12;fontStyle=0;aspect=fixed;shape=mxgraph.aws4.resourceIcon;resIcon=mxgraph.aws4.codepipeline;" parent="1" vertex="1">
                    <mxGeometry x="1388" y="234" width="78" height="78" as="geometry"/>
                </mxCell>
                <mxCell id="225" style="edgeStyle=orthogonalEdgeStyle;html=1;entryX=0;entryY=0.5;entryDx=0;entryDy=0;" parent="1" source="215" target="216" edge="1">
                    <mxGeometry relative="1" as="geometry"/>
                </mxCell>
                <mxCell id="215" value="Source" style="rounded=0;whiteSpace=wrap;html=1;fillColor=#f5f5f5;fontColor=#333333;strokeColor=none;verticalAlign=bottom;" parent="1" vertex="1">
                    <mxGeometry x="1388" y="380" width="220" height="163" as="geometry"/>
                </mxCell>
                <mxCell id="214" value="AWS CodeStar&lt;br&gt;Connection" style="sketch=0;points=[[0,0,0],[0.25,0,0],[0.5,0,0],[0.75,0,0],[1,0,0],[0,1,0],[0.25,1,0],[0.5,1,0],[0.75,1,0],[1,1,0],[0,0.25,0],[0,0.5,0],[0,0.75,0],[1,0.25,0],[1,0.5,0],[1,0.75,0]];outlineConnect=0;fontColor=#232F3E;gradientColor=#4D72F3;gradientDirection=north;fillColor=#3334B9;strokeColor=#ffffff;dashed=0;verticalLabelPosition=bottom;verticalAlign=top;align=center;html=1;fontSize=12;fontStyle=0;aspect=fixed;shape=mxgraph.aws4.resourceIcon;resIcon=mxgraph.aws4.codestar;" parent="1" vertex="1">
                    <mxGeometry x="1459" y="403" width="78" height="78" as="geometry"/>
                </mxCell>
                <mxCell id="226" style="edgeStyle=orthogonalEdgeStyle;html=1;" parent="1" source="216" target="217" edge="1">
                    <mxGeometry relative="1" as="geometry"/>
                </mxCell>
                <mxCell id="216" value="Synth" style="rounded=0;whiteSpace=wrap;html=1;fillColor=#f5f5f5;fontColor=#333333;strokeColor=none;verticalAlign=bottom;" parent="1" vertex="1">
                    <mxGeometry x="1648" y="380" width="290" height="163" as="geometry"/>
                </mxCell>
                <mxCell id="224" style="edgeStyle=orthogonalEdgeStyle;html=1;" parent="1" source="217" edge="1">
                    <mxGeometry relative="1" as="geometry">
                        <mxPoint x="1528" y="643" as="targetPoint"/>
                        <Array as="points">
                            <mxPoint x="2113" y="593"/>
                            <mxPoint x="1528" y="593"/>
                        </Array>
                    </mxGeometry>
                </mxCell>
                <mxCell id="217" value="Update Pipeline" style="rounded=0;whiteSpace=wrap;html=1;fillColor=#f5f5f5;fontColor=#333333;strokeColor=none;verticalAlign=bottom;" parent="1" vertex="1">
                    <mxGeometry x="1978" y="380" width="270" height="163" as="geometry"/>
                </mxCell>
                <mxCell id="227" style="edgeStyle=orthogonalEdgeStyle;html=1;entryX=0;entryY=0.5;entryDx=0;entryDy=0;" parent="1" source="218" target="219" edge="1">
                    <mxGeometry relative="1" as="geometry"/>
                </mxCell>
                <mxCell id="218" value="Assets" style="rounded=0;whiteSpace=wrap;html=1;fillColor=#f5f5f5;fontColor=#333333;strokeColor=none;verticalAlign=bottom;" parent="1" vertex="1">
                    <mxGeometry x="1388" y="643" width="280" height="180" as="geometry"/>
                </mxCell>
                <mxCell id="219" value="Deploy" style="rounded=0;whiteSpace=wrap;html=1;fillColor=#f5f5f5;fontColor=#333333;strokeColor=none;verticalAlign=bottom;" parent="1" vertex="1">
                    <mxGeometry x="1708" y="643" width="410" height="180" as="geometry"/>
                </mxCell>
                <mxCell id="233" value="cdk synth" style="edgeStyle=none;html=1;entryX=0;entryY=0.5;entryDx=0;entryDy=0;entryPerimeter=0;" parent="1" source="220" target="221" edge="1">
                    <mxGeometry x="-0.0392" relative="1" as="geometry">
                        <mxPoint as="offset"/>
                    </mxGeometry>
                </mxCell>
                <mxCell id="220" value="AWS CodeBuild" style="sketch=0;points=[[0,0,0],[0.25,0,0],[0.5,0,0],[0.75,0,0],[1,0,0],[0,1,0],[0.25,1,0],[0.5,1,0],[0.75,1,0],[1,1,0],[0,0.25,0],[0,0.5,0],[0,0.75,0],[1,0.25,0],[1,0.5,0],[1,0.75,0]];outlineConnect=0;fontColor=#232F3E;gradientColor=#4D72F3;gradientDirection=north;fillColor=#3334B9;strokeColor=#ffffff;dashed=0;verticalLabelPosition=bottom;verticalAlign=top;align=center;html=1;fontSize=12;fontStyle=0;aspect=fixed;shape=mxgraph.aws4.resourceIcon;resIcon=mxgraph.aws4.codebuild;" parent="1" vertex="1">
                    <mxGeometry x="1668" y="403" width="78" height="78" as="geometry"/>
                </mxCell>
                <mxCell id="221" value="AWS Cloud&lt;br&gt;Development Kit" style="sketch=0;points=[[0,0,0],[0.25,0,0],[0.5,0,0],[0.75,0,0],[1,0,0],[0,1,0],[0.25,1,0],[0.5,1,0],[0.75,1,0],[1,1,0],[0,0.25,0],[0,0.5,0],[0,0.75,0],[1,0.25,0],[1,0.5,0],[1,0.75,0]];outlineConnect=0;fontColor=#232F3E;gradientColor=#4D72F3;gradientDirection=north;fillColor=#3334B9;strokeColor=#ffffff;dashed=0;verticalLabelPosition=bottom;verticalAlign=top;align=center;html=1;fontSize=12;fontStyle=0;aspect=fixed;shape=mxgraph.aws4.resourceIcon;resIcon=mxgraph.aws4.cloud_development_kit;" parent="1" vertex="1">
                    <mxGeometry x="1848" y="403" width="78" height="78" as="geometry"/>
                </mxCell>
                <mxCell id="222" value="AWS Cloud&lt;br&gt;Development Kit" style="sketch=0;points=[[0,0,0],[0.25,0,0],[0.5,0,0],[0.75,0,0],[1,0,0],[0,1,0],[0.25,1,0],[0.5,1,0],[0.75,1,0],[1,1,0],[0,0.25,0],[0,0.5,0],[0,0.75,0],[1,0.25,0],[1,0.5,0],[1,0.75,0]];outlineConnect=0;fontColor=#232F3E;gradientColor=#4D72F3;gradientDirection=north;fillColor=#3334B9;strokeColor=#ffffff;dashed=0;verticalLabelPosition=bottom;verticalAlign=top;align=center;html=1;fontSize=12;fontStyle=0;aspect=fixed;shape=mxgraph.aws4.resourceIcon;resIcon=mxgraph.aws4.cloud_development_kit;" parent="1" vertex="1">
                    <mxGeometry x="2156" y="403" width="78" height="78" as="geometry"/>
                </mxCell>
                <mxCell id="234" style="edgeStyle=none;html=1;" parent="1" source="223" target="222" edge="1">
                    <mxGeometry relative="1" as="geometry"/>
                </mxCell>
                <mxCell id="235" value="cdk deploy" style="edgeLabel;html=1;align=center;verticalAlign=middle;resizable=0;points=[];" parent="234" vertex="1" connectable="0">
                    <mxGeometry x="-0.3871" y="-3" relative="1" as="geometry">
                        <mxPoint x="14" y="-3" as="offset"/>
                    </mxGeometry>
                </mxCell>
                <mxCell id="223" value="AWS CodeBuild" style="sketch=0;points=[[0,0,0],[0.25,0,0],[0.5,0,0],[0.75,0,0],[1,0,0],[0,1,0],[0.25,1,0],[0.5,1,0],[0.75,1,0],[1,1,0],[0,0.25,0],[0,0.5,0],[0,0.75,0],[1,0.25,0],[1,0.5,0],[1,0.75,0]];outlineConnect=0;fontColor=#232F3E;gradientColor=#4D72F3;gradientDirection=north;fillColor=#3334B9;strokeColor=#ffffff;dashed=0;verticalLabelPosition=bottom;verticalAlign=top;align=center;html=1;fontSize=12;fontStyle=0;aspect=fixed;shape=mxgraph.aws4.resourceIcon;resIcon=mxgraph.aws4.codebuild;" parent="1" vertex="1">
                    <mxGeometry x="1991" y="403" width="78" height="78" as="geometry"/>
                </mxCell>
                <mxCell id="228" value="AWS CodeBuild" style="sketch=0;points=[[0,0,0],[0.25,0,0],[0.5,0,0],[0.75,0,0],[1,0,0],[0,1,0],[0.25,1,0],[0.5,1,0],[0.75,1,0],[1,1,0],[0,0.25,0],[0,0.5,0],[0,0.75,0],[1,0.25,0],[1,0.5,0],[1,0.75,0]];outlineConnect=0;fontColor=#232F3E;gradientColor=#4D72F3;gradientDirection=north;fillColor=#3334B9;strokeColor=#ffffff;dashed=0;verticalLabelPosition=bottom;verticalAlign=top;align=center;html=1;fontSize=12;fontStyle=0;aspect=fixed;shape=mxgraph.aws4.resourceIcon;resIcon=mxgraph.aws4.codebuild;" parent="1" vertex="1">
                    <mxGeometry x="1416.5" y="673" width="78" height="78" as="geometry"/>
                </mxCell>
                <mxCell id="229" value="AWS Cloud&lt;br&gt;Development Kit" style="sketch=0;points=[[0,0,0],[0.25,0,0],[0.5,0,0],[0.75,0,0],[1,0,0],[0,1,0],[0.25,1,0],[0.5,1,0],[0.75,1,0],[1,1,0],[0,0.25,0],[0,0.5,0],[0,0.75,0],[1,0.25,0],[1,0.5,0],[1,0.75,0]];outlineConnect=0;fontColor=#232F3E;gradientColor=#4D72F3;gradientDirection=north;fillColor=#3334B9;strokeColor=#ffffff;dashed=0;verticalLabelPosition=bottom;verticalAlign=top;align=center;html=1;fontSize=12;fontStyle=0;aspect=fixed;shape=mxgraph.aws4.resourceIcon;resIcon=mxgraph.aws4.cloud_development_kit;" parent="1" vertex="1">
                    <mxGeometry x="1561.5" y="673" width="78" height="78" as="geometry"/>
                </mxCell>
                <mxCell id="230" value="AWS CloudFormation&lt;br&gt;Prepare" style="sketch=0;points=[[0,0,0],[0.25,0,0],[0.5,0,0],[0.75,0,0],[1,0,0],[0,1,0],[0.25,1,0],[0.5,1,0],[0.75,1,0],[1,1,0],[0,0.25,0],[0,0.5,0],[0,0.75,0],[1,0.25,0],[1,0.5,0],[1,0.75,0]];points=[[0,0,0],[0.25,0,0],[0.5,0,0],[0.75,0,0],[1,0,0],[0,1,0],[0.25,1,0],[0.5,1,0],[0.75,1,0],[1,1,0],[0,0.25,0],[0,0.5,0],[0,0.75,0],[1,0.25,0],[1,0.5,0],[1,0.75,0]];outlineConnect=0;fontColor=#232F3E;gradientColor=#F34482;gradientDirection=north;fillColor=#BC1356;strokeColor=#ffffff;dashed=0;verticalLabelPosition=bottom;verticalAlign=top;align=center;html=1;fontSize=12;fontStyle=0;aspect=fixed;shape=mxgraph.aws4.resourceIcon;resIcon=mxgraph.aws4.cloudformation;" parent="1" vertex="1">
                    <mxGeometry x="1738" y="673" width="78" height="78" as="geometry"/>
                </mxCell>
                <mxCell id="231" value="AWS CloudFormation&lt;br&gt;Deploy" style="sketch=0;points=[[0,0,0],[0.25,0,0],[0.5,0,0],[0.75,0,0],[1,0,0],[0,1,0],[0.25,1,0],[0.5,1,0],[0.75,1,0],[1,1,0],[0,0.25,0],[0,0.5,0],[0,0.75,0],[1,0.25,0],[1,0.5,0],[1,0.75,0]];points=[[0,0,0],[0.25,0,0],[0.5,0,0],[0.75,0,0],[1,0,0],[0,1,0],[0.25,1,0],[0.5,1,0],[0.75,1,0],[1,1,0],[0,0.25,0],[0,0.5,0],[0,0.75,0],[1,0.25,0],[1,0.5,0],[1,0.75,0]];outlineConnect=0;fontColor=#232F3E;gradientColor=#F34482;gradientDirection=north;fillColor=#BC1356;strokeColor=#ffffff;dashed=0;verticalLabelPosition=bottom;verticalAlign=top;align=center;html=1;fontSize=12;fontStyle=0;aspect=fixed;shape=mxgraph.aws4.resourceIcon;resIcon=mxgraph.aws4.cloudformation;" parent="1" vertex="1">
                    <mxGeometry x="1874" y="673" width="78" height="78" as="geometry"/>
                </mxCell>
                <mxCell id="232" value="AWS CodeBuild&lt;br&gt;Deploy to CodeArtifact" style="sketch=0;points=[[0,0,0],[0.25,0,0],[0.5,0,0],[0.75,0,0],[1,0,0],[0,1,0],[0.25,1,0],[0.5,1,0],[0.75,1,0],[1,1,0],[0,0.25,0],[0,0.5,0],[0,0.75,0],[1,0.25,0],[1,0.5,0],[1,0.75,0]];outlineConnect=0;fontColor=#232F3E;gradientColor=#4D72F3;gradientDirection=north;fillColor=#3334B9;strokeColor=#ffffff;dashed=0;verticalLabelPosition=bottom;verticalAlign=top;align=center;html=1;fontSize=12;fontStyle=0;aspect=fixed;shape=mxgraph.aws4.resourceIcon;resIcon=mxgraph.aws4.codebuild;" parent="1" vertex="1">
                    <mxGeometry x="2008" y="673" width="78" height="78" as="geometry"/>
                </mxCell>
                <mxCell id="237" value="trigger" style="edgeStyle=none;html=1;" parent="1" source="236" target="214" edge="1">
                    <mxGeometry relative="1" as="geometry"/>
                </mxCell>
                <mxCell id="236" value="&lt;font style=&quot;font-size: 12px;&quot;&gt;GitHub&lt;/font&gt;" style="dashed=0;outlineConnect=0;html=1;align=center;labelPosition=center;verticalLabelPosition=bottom;verticalAlign=top;shape=mxgraph.weblogos.github;fontSize=24;" parent="1" vertex="1">
                    <mxGeometry x="1261" y="406" width="75" height="75" as="geometry"/>
                </mxCell>
                <mxCell id="239" style="edgeStyle=none;html=1;" parent="1" source="238" target="236" edge="1">
                    <mxGeometry relative="1" as="geometry"/>
                </mxCell>
                <mxCell id="240" value="push" style="edgeLabel;html=1;align=center;verticalAlign=middle;resizable=0;points=[];" parent="239" vertex="1" connectable="0">
                    <mxGeometry x="-0.3995" y="-2" relative="1" as="geometry">
                        <mxPoint x="8" y="-1" as="offset"/>
                    </mxGeometry>
                </mxCell>
                <mxCell id="238" value="API Developers" style="sketch=0;outlineConnect=0;fontColor=#232F3E;gradientColor=none;fillColor=#232F3D;strokeColor=none;dashed=0;verticalLabelPosition=bottom;verticalAlign=top;align=center;html=1;fontSize=12;fontStyle=0;aspect=fixed;pointerEvents=1;shape=mxgraph.aws4.users;" parent="1" vertex="1">
                    <mxGeometry x="1104" y="403" width="78" height="78" as="geometry"/>
                </mxCell>
                <mxCell id="241" value="mainブランチ&lt;br&gt;releaseブランチ&lt;br&gt;tag" style="rounded=0;whiteSpace=wrap;html=1;fillColor=#f5f5f5;fontColor=#333333;strokeColor=none;verticalAlign=top;" parent="1" vertex="1">
                    <mxGeometry x="1100" y="526" width="220" height="163" as="geometry"/>
                </mxCell>
                <mxCell id="242" value="プロダクトコード&lt;br&gt;lambda&lt;br&gt;lambda-edge&lt;br&gt;テストコード&lt;br&gt;lambda&lt;br&gt;lambda-edge" style="rounded=0;whiteSpace=wrap;html=1;fillColor=#f5f5f5;fontColor=#333333;strokeColor=none;verticalAlign=top;" parent="1" vertex="1">
                    <mxGeometry x="1416.5" y="841" width="220" height="163" as="geometry"/>
                </mxCell>
            </root>
        </mxGraphModel>
    </diagram>
</mxfile>